<svg class="diagram-root" style="background: #f5f6f6" xmlns="http://www.w3.org/2000/svg" xmlns:xlink="http://www.w3.org/1999/xlink"><style>.diagram-root { font-family: "Helvetica Neue", sans-serif; font-size: 12px; } .t { overflow: visible; } .t-bg { y: 40; fill: #fff;   } .th { fill: #005aa0;   } .tht { fill: #fff; font-size: 14px;  } .tf { fill: #323c46; overflow: visible; } .tf.pk { fill: #005aa0; font-weight: bold; } .tf.fk { font-weight: bold; } .ty { fill: #adb1b5; font-weight: normal; text-anchor: end; } .r { fill: transparent; stroke: #c3c3c3; stroke-width: 1; } .l { stroke: 1; } .i { fill: #c2c7ce; stroke: #c2c7ce; } .i.ix { fill: #afb3b6; stroke: #000; } .fa { fill: transparent; overflow: visible; } .fa .bg.hover { fill: #f7f7f7; } .c { cy: 12; r: 4; stroke: #d2d2dc; fill: #d2d2dc; } .hr { fill: transparent; stroke: #323c46; stroke-opacity: 0.035; stroke-width: 13; } .dc { stroke: #fa5a3c; fill: #fa5a3c; } .x { stroke: white; stroke-width: 1; } .hl .th { fill: #1b9bff; } .hl .tht {  } .fhl .bg { fill: #e7f4ff; } .fhls .bg {  } .r.hl { stroke: #1b9bff; } .dim { opacity: 0.25; }</style><g class="drawing-wrapper" transform="translate(132.25, 49.5) scale(1,1)"><g class="rs"><path d="M 64.25 87.5 m -1, 0 a 1,1 0 1,0 2,0 a 1,1 0 1,0 -2,0 M 64.25 87.5 m -0.5, 0 a 0.5,0.5 0 1,0 1,0 a 0.5,0.5 0 1,0 -1,0  M64.25 87.5 L64.25 87.5 76.25 87.5 M 64.25 93.5 m -1, 0 a 1,1 0 1,0 2,0 a 1,1 0 1,0 -2,0 M 64.25 93.5 m -0.5, 0 a 0.5,0.5 0 1,0 1,0 a 0.5,0.5 0 1,0 -1,0  M64.25 93.5 L64.25 93.5 71.25 87.5 64.25 81.5 M 64.25 81.5 m -1, 0 a 1,1 0 1,0 2,0 a 1,1 0 1,0 -2,0 M 64.25 81.5 m -0.5, 0 a 0.5,0.5 0 1,0 1,0 a 0.5,0.5 0 1,0 -1,0  M76.25 87.5 Q 95.57 87.5, 114.88 69.13 T 153.5 50.75 M 165.5 50.75 m -1, 0 a 1,1 0 1,0 2,0 a 1,1 0 1,0 -2,0 M 165.5 50.75 m -0.5, 0 a 0.5,0.5 0 1,0 1,0 a 0.5,0.5 0 1,0 -1,0  M165.5 50.75 L165.5 50.75 153.5 50.75 M159.5 56.75 L159.5 56.75 159.5 44.75" id="h3930066898" class="r"></path><path d="M 64.25 112.5 m -1, 0 a 1,1 0 1,0 2,0 a 1,1 0 1,0 -2,0 M 64.25 112.5 m -0.5, 0 a 0.5,0.5 0 1,0 1,0 a 0.5,0.5 0 1,0 -1,0  M64.25 112.5 L64.25 112.5 76.25 112.5 M 64.25 118.5 m -1, 0 a 1,1 0 1,0 2,0 a 1,1 0 1,0 -2,0 M 64.25 118.5 m -0.5, 0 a 0.5,0.5 0 1,0 1,0 a 0.5,0.5 0 1,0 -1,0  M64.25 118.5 L64.25 118.5 71.25 112.5 64.25 106.5 M 64.25 106.5 m -1, 0 a 1,1 0 1,0 2,0 a 1,1 0 1,0 -2,0 M 64.25 106.5 m -0.5, 0 a 0.5,0.5 0 1,0 1,0 a 0.5,0.5 0 1,0 -1,0  M76.25 112.5 C 133.45 112.5, 130.75 285.75, 80.75 285.75 M 68.75 285.75 m -1, 0 a 1,1 0 1,0 2,0 a 1,1 0 1,0 -2,0 M 68.75 285.75 m -0.5, 0 a 0.5,0.5 0 1,0 1,0 a 0.5,0.5 0 1,0 -1,0  M68.75 285.75 L68.75 285.75 80.75 285.75 M74.75 291.75 L74.75 291.75 74.75 279.75" id="h1309070130" class="r"></path><path d="M 64.25 137.5 m -1, 0 a 1,1 0 1,0 2,0 a 1,1 0 1,0 -2,0 M 64.25 137.5 m -0.5, 0 a 0.5,0.5 0 1,0 1,0 a 0.5,0.5 0 1,0 -1,0  M64.25 137.5 L64.25 137.5 76.25 137.5 M 64.25 143.5 m -1, 0 a 1,1 0 1,0 2,0 a 1,1 0 1,0 -2,0 M 64.25 143.5 m -0.5, 0 a 0.5,0.5 0 1,0 1,0 a 0.5,0.5 0 1,0 -1,0  M64.25 143.5 L64.25 143.5 71.25 137.5 64.25 131.5 M 64.25 131.5 m -1, 0 a 1,1 0 1,0 2,0 a 1,1 0 1,0 -2,0 M 64.25 131.5 m -0.5, 0 a 0.5,0.5 0 1,0 1,0 a 0.5,0.5 0 1,0 -1,0  M76.25 137.5 Q 91.88 137.5, 107.5 236.5 T 138.75 335.5 M 150.75 335.5 m -1, 0 a 1,1 0 1,0 2,0 a 1,1 0 1,0 -2,0 M 150.75 335.5 m -0.5, 0 a 0.5,0.5 0 1,0 1,0 a 0.5,0.5 0 1,0 -1,0  M150.75 335.5 L150.75 335.5 138.75 335.5 M144.75 341.5 L144.75 341.5 144.75 329.5" id="h3314705600" class="r"></path><path d="M 150.75 360.5 m -1, 0 a 1,1 0 1,0 2,0 a 1,1 0 1,0 -2,0 M 150.75 360.5 m -0.5, 0 a 0.5,0.5 0 1,0 1,0 a 0.5,0.5 0 1,0 -1,0  M150.75 360.5 L150.75 360.5 138.75 360.5 M 150.75 366.5 m -1, 0 a 1,1 0 1,0 2,0 a 1,1 0 1,0 -2,0 M 150.75 366.5 m -0.5, 0 a 0.5,0.5 0 1,0 1,0 a 0.5,0.5 0 1,0 -1,0  M150.75 366.5 L150.75 366.5 143.75 360.5 150.75 354.5 M 150.75 354.5 m -1, 0 a 1,1 0 1,0 2,0 a 1,1 0 1,0 -2,0 M 150.75 354.5 m -0.5, 0 a 0.5,0.5 0 1,0 1,0 a 0.5,0.5 0 1,0 -1,0  M138.75 360.5 C -328.85 360.5, -172.25 285.75, -122.25 285.75 M -110.25 285.75 m -1, 0 a 1,1 0 1,0 2,0 a 1,1 0 1,0 -2,0 M -110.25 285.75 m -0.5, 0 a 0.5,0.5 0 1,0 1,0 a 0.5,0.5 0 1,0 -1,0  M-110.25 285.75 L-110.25 285.75 -122.25 285.75 M-116.25 291.75 L-116.25 291.75 -116.25 279.75" id="h2398083790" class="r"></path><path d="M 803 508.25 m -1, 0 a 1,1 0 1,0 2,0 a 1,1 0 1,0 -2,0 M 803 508.25 m -0.5, 0 a 0.5,0.5 0 1,0 1,0 a 0.5,0.5 0 1,0 -1,0  M803 508.25 L803 508.25 815 508.25 M 803 514.25 m -1, 0 a 1,1 0 1,0 2,0 a 1,1 0 1,0 -2,0 M 803 514.25 m -0.5, 0 a 0.5,0.5 0 1,0 1,0 a 0.5,0.5 0 1,0 -1,0  M803 514.25 L803 514.25 810 508.25 803 502.25 M 803 502.25 m -1, 0 a 1,1 0 1,0 2,0 a 1,1 0 1,0 -2,0 M 803 502.25 m -0.5, 0 a 0.5,0.5 0 1,0 1,0 a 0.5,0.5 0 1,0 -1,0  M815 508.25 C 865 508.25, 867.7 185.75, 810.5 185.75 M 798.5 185.75 m -1, 0 a 1,1 0 1,0 2,0 a 1,1 0 1,0 -2,0 M 798.5 185.75 m -0.5, 0 a 0.5,0.5 0 1,0 1,0 a 0.5,0.5 0 1,0 -1,0  M798.5 185.75 L798.5 185.75 810.5 185.75 M804.5 191.75 L804.5 191.75 804.5 179.75" id="h3497415791" class="r"></path><path d="M 803 533.25 m -1, 0 a 1,1 0 1,0 2,0 a 1,1 0 1,0 -2,0 M 803 533.25 m -0.5, 0 a 0.5,0.5 0 1,0 1,0 a 0.5,0.5 0 1,0 -1,0  M803 533.25 L803 533.25 815 533.25 M 803 539.25 m -1, 0 a 1,1 0 1,0 2,0 a 1,1 0 1,0 -2,0 M 803 539.25 m -0.5, 0 a 0.5,0.5 0 1,0 1,0 a 0.5,0.5 0 1,0 -1,0  M803 539.25 L803 539.25 810 533.25 803 527.25 M 803 527.25 m -1, 0 a 1,1 0 1,0 2,0 a 1,1 0 1,0 -2,0 M 803 527.25 m -0.5, 0 a 0.5,0.5 0 1,0 1,0 a 0.5,0.5 0 1,0 -1,0  M815 533.25 C 865 533.25, 867.7 210.75, 810.5 210.75 M 798.5 210.75 m -1, 0 a 1,1 0 1,0 2,0 a 1,1 0 1,0 -2,0 M 798.5 210.75 m -0.5, 0 a 0.5,0.5 0 1,0 1,0 a 0.5,0.5 0 1,0 -1,0  M798.5 210.75 L798.5 210.75 810.5 210.75 M804.5 216.75 L804.5 216.75 804.5 204.75" id="h537760795" class="r"></path><path d="M 1031.75 369.5 m -1, 0 a 1,1 0 1,0 2,0 a 1,1 0 1,0 -2,0 M 1031.75 369.5 m -0.5, 0 a 0.5,0.5 0 1,0 1,0 a 0.5,0.5 0 1,0 -1,0  M1031.75 369.5 L1031.75 369.5 1043.75 369.5 M 1031.75 375.5 m -1, 0 a 1,1 0 1,0 2,0 a 1,1 0 1,0 -2,0 M 1031.75 375.5 m -0.5, 0 a 0.5,0.5 0 1,0 1,0 a 0.5,0.5 0 1,0 -1,0  M1031.75 375.5 L1031.75 375.5 1038.75 369.5 1031.75 363.5 M 1031.75 363.5 m -1, 0 a 1,1 0 1,0 2,0 a 1,1 0 1,0 -2,0 M 1031.75 363.5 m -0.5, 0 a 0.5,0.5 0 1,0 1,0 a 0.5,0.5 0 1,0 -1,0  M1043.75 369.5 C 1093.75 369.5, 1233.7 185.75, 810.5 185.75 M 798.5 185.75 m -1, 0 a 1,1 0 1,0 2,0 a 1,1 0 1,0 -2,0 M 798.5 185.75 m -0.5, 0 a 0.5,0.5 0 1,0 1,0 a 0.5,0.5 0 1,0 -1,0  M798.5 185.75 L798.5 185.75 810.5 185.75 M804.5 191.75 L804.5 191.75 804.5 179.75" id="h2133409396" class="r"></path><path d="M 427.5 372 m -1, 0 a 1,1 0 1,0 2,0 a 1,1 0 1,0 -2,0 M 427.5 372 m -0.5, 0 a 0.5,0.5 0 1,0 1,0 a 0.5,0.5 0 1,0 -1,0  M427.5 372 L427.5 372 415.5 372 M 427.5 378 m -1, 0 a 1,1 0 1,0 2,0 a 1,1 0 1,0 -2,0 M 427.5 378 m -0.5, 0 a 0.5,0.5 0 1,0 1,0 a 0.5,0.5 0 1,0 -1,0  M427.5 378 L427.5 378 420.5 372 427.5 366 M 427.5 366 m -1, 0 a 1,1 0 1,0 2,0 a 1,1 0 1,0 -2,0 M 427.5 366 m -0.5, 0 a 0.5,0.5 0 1,0 1,0 a 0.5,0.5 0 1,0 -1,0  M415.5 372 C 365.5 372, 260.5 185.75, 590.5 185.75 M 602.5 185.75 m -1, 0 a 1,1 0 1,0 2,0 a 1,1 0 1,0 -2,0 M 602.5 185.75 m -0.5, 0 a 0.5,0.5 0 1,0 1,0 a 0.5,0.5 0 1,0 -1,0  M602.5 185.75 L602.5 185.75 590.5 185.75 M596.5 191.75 L596.5 191.75 596.5 179.75" id="h1001420123" class="r"></path></g><g class="hrs"></g><g class="ts"><svg width="177" height="250" x="165.5" y="-6.25" id="h2788136680" class="t"><rect height="40" width="177" class="th"></rect><text x="13" y="25" class="tht">breweries_reduced_df</text><rect height="210" width="177" class="t-bg" y="40"></rect><text x="13" y="61" class="tf pk">id<tspan x="164" class="ty">INTEGER</tspan></text><path d="M7,14A2,2 0 0,1 5,12A2,2 0 0,1 7,10A2,2 0 0,1 9,12A2,2 0 0,1 7,14M12.65,10C11.83,7.67 9.61,6 7, 6A6, 6 0 0, 0 1, 12A6, 6 0 0, 0 7, 18C9.61, 18 11.83, 16.33 12.65, 14H17V18H21V14H23V10H12.65Z" class="i pk" transform="translate(91, 48) scale(0.65)"></path><text x="13" y="86" class="tf">name<tspan x="164" class="ty">VARCHAR(50)</tspan></text><text x="13" y="111" class="tf">address1<tspan x="164" class="ty">VARCHAR(50)</tspan></text><text x="13" y="136" class="tf">city<tspan x="164" class="ty">VARCHAR(30)</tspan></text><text x="13" y="161" class="tf">state<tspan x="164" class="ty">VARCHAR(30)</tspan></text><text x="13" y="186" class="tf">county<tspan x="164" class="ty">VARCHAR(30)</tspan></text><text x="13" y="211" class="tf">phone<tspan x="164" class="ty">VARCHAR(20)</tspan></text><text x="13" y="236" class="tf">website<tspan x="164" class="ty">VARCHAR(50)</tspan></text></svg><svg width="159" height="200" x="-94.75" y="-19.5" id="h3495994891" class="t"><rect height="40" width="159" class="th"></rect><text x="13" y="25" class="tht">beers_reduced_df</text><rect height="160" width="159" class="t-bg" y="40"></rect><text x="13" y="61" class="tf pk">id<tspan x="146" class="ty">INTEGER</tspan></text><path d="M7,14A2,2 0 0,1 5,12A2,2 0 0,1 7,10A2,2 0 0,1 9,12A2,2 0 0,1 7,14M12.65,10C11.83,7.67 9.61,6 7, 6A6, 6 0 0, 0 1, 12A6, 6 0 0, 0 7, 18C9.61, 18 11.83, 16.33 12.65, 14H17V18H21V14H23V10H12.65Z" class="i pk" transform="translate(73, 48) scale(0.65)"></path><text x="13" y="86" class="tf">name<tspan x="146" class="ty">VARCHAR(30)</tspan></text><text x="13" y="111" class="tf fk">brewery_id<tspan x="146" class="ty">INTEGER</tspan></text><text x="13" y="136" class="tf fk">cat_id<tspan x="146" class="ty">INTEGER</tspan></text><text x="13" y="161" class="tf fk">style_id<tspan x="146" class="ty">INTEGER</tspan></text><text x="13" y="186" class="tf">abv<tspan x="146" class="ty">DECIMAL(3,1)</tspan></text></svg><svg width="179" height="100" x="-110.25" y="228.75" id="h3831011153" class="t"><rect height="40" width="179" class="th"></rect><text x="13" y="25" class="tht">categories_cleaned</text><rect height="60" width="179" class="t-bg" y="40"></rect><text x="13" y="61" class="tf pk">id<tspan x="166" class="ty">INTEGER</tspan></text><path d="M7,14A2,2 0 0,1 5,12A2,2 0 0,1 7,10A2,2 0 0,1 9,12A2,2 0 0,1 7,14M12.65,10C11.83,7.67 9.61,6 7, 6A6, 6 0 0, 0 1, 12A6, 6 0 0, 0 7, 18C9.61, 18 11.83, 16.33 12.65, 14H17V18H21V14H23V10H12.65Z" class="i pk" transform="translate(93, 48) scale(0.65)"></path><text x="13" y="86" class="tf">cat_name<tspan x="166" class="ty">VARCHAR(30)</tspan></text></svg><svg width="189" height="200" x="150.75" y="278.5" id="h1846904036" class="t"><rect height="40" width="189" class="th"></rect><text x="13" y="25" class="tht">styles_reduced_df</text><rect height="160" width="189" class="t-bg" y="40"></rect><text x="13" y="61" class="tf pk">id<tspan x="176" class="ty">INTEGER</tspan></text><path d="M7,14A2,2 0 0,1 5,12A2,2 0 0,1 7,10A2,2 0 0,1 9,12A2,2 0 0,1 7,14M12.65,10C11.83,7.67 9.61,6 7, 6A6, 6 0 0, 0 1, 12A6, 6 0 0, 0 7, 18C9.61, 18 11.83, 16.33 12.65, 14H17V18H21V14H23V10H12.65Z" class="i pk" transform="translate(103, 48) scale(0.65)"></path><text x="13" y="86" class="tf fk">cat_id<tspan x="176" class="ty">INTEGER</tspan></text><text x="13" y="111" class="tf">style_name<tspan x="176" class="ty">VARCHAR(30)</tspan></text><text x="13" y="136" class="tf">ABV_Low<tspan x="176" class="ty">DECIMAL(3,1)</tspan></text><text x="13" y="161" class="tf">ABV_High<tspan x="176" class="ty">DECIMAL(3,1)</tspan></text><text x="13" y="186" class="tf">Glass_Type<tspan x="176" class="ty">VARCHAR(20)</tspan></text></svg><svg width="188" height="150" x="615" y="451.25" id="h2077513736" class="t"><rect height="40" width="188" class="th"></rect><text x="13" y="25" class="tht">contact_brewery</text><rect height="110" width="188" class="t-bg" y="40"></rect><text x="13" y="61" class="tf fk">id<tspan x="175" class="ty">INTEGER</tspan></text><text x="13" y="86" class="tf fk">name<tspan x="175" class="ty">VARCHAR</tspan></text><text x="13" y="111" class="tf">phone<tspan x="175" class="ty">INTEGER</tspan></text><text x="13" y="136" class="tf">website_url<tspan x="175" class="ty">VARCHAR(50)</tspan></text></svg><svg width="196" height="125" x="602.5" y="128.75" id="h2844950690" class="t"><rect height="40" width="196" class="th"></rect><text x="13" y="25" class="tht">brewery_type</text><rect height="85" width="196" class="t-bg" y="40"></rect><text x="13" y="61" class="tf pk">id<tspan x="183" class="ty">INTEGER</tspan></text><path d="M7,14A2,2 0 0,1 5,12A2,2 0 0,1 7,10A2,2 0 0,1 9,12A2,2 0 0,1 7,14M12.65,10C11.83,7.67 9.61,6 7, 6A6, 6 0 0, 0 1, 12A6, 6 0 0, 0 7, 18C9.61, 18 11.83, 16.33 12.65, 14H17V18H21V14H23V10H12.65Z" class="i pk" transform="translate(110, 48) scale(0.65)"></path><text x="13" y="86" class="tf fk">name<tspan x="183" class="ty">VARCHAR(30)</tspan></text><text x="13" y="111" class="tf">brewery_type<tspan x="183" class="ty">VARCHAR(10)</tspan></text></svg><svg width="163" height="175" x="868.75" y="312.5" id="h3480642118" class="t"><rect height="40" width="163" class="th"></rect><text x="13" y="25" class="tht">brewery_address</text><rect height="135" width="163" class="t-bg" y="40"></rect><text x="13" y="61" class="tf fk">id<tspan x="150" class="ty">INTEGER</tspan></text><text x="13" y="86" class="tf">street<tspan x="150" class="ty">VARCHAR(50)</tspan></text><text x="13" y="111" class="tf">city<tspan x="150" class="ty">VARCHAR(30)</tspan></text><text x="13" y="136" class="tf">state<tspan x="150" class="ty">VARCHAR(30)</tspan></text><text x="13" y="161" class="tf">country<tspan x="150" class="ty">VARCHAR(30)</tspan></text></svg><svg width="174" height="125" x="427.5" y="315" id="h4097107109" class="t"><rect height="40" width="174" class="th"></rect><text x="13" y="25" class="tht">brewery_coordinates</text><rect height="85" width="174" class="t-bg" y="40"></rect><text x="13" y="61" class="tf fk">id<tspan x="161" class="ty">INTEGER</tspan></text><text x="13" y="86" class="tf">latitude<tspan x="161" class="ty">DECIMAL(9,6)</tspan></text><text x="13" y="111" class="tf">longitude<tspan x="161" class="ty">DECIMAL(9,6)</tspan></text></svg></g></g><text class="qdbd-link" x="10" y="20">www.quickdatabasediagrams.com</text></svg>